<svg xmlns="http://www.w3.org/2000/svg" width="460" height="456" viewBox="0 0 460 456" font-family="Roboto, Segoe UI, system-ui, sans-serif">
<defs><filter id="sh" x="-20%" y="-20%" width="140%" height="140%"><feDropShadow dx="0" dy="2" stdDeviation="6" flood-opacity="0.18"/></filter></defs>
<rect x="2" y="2" width="456" height="452" rx="14" fill="#1c1c1c" stroke="#2c2c2c" stroke-width="1" filter="url(#sh)"/>
<text x="16" y="42" font-size="21" font-weight="500" fill="#e6e6e6">Flights Above</text>
<rect x="410" y="24" width="34" height="23" rx="11.5" fill="#3bb6ef"/>
<text x="427.0" y="40" font-size="12" font-weight="600" text-anchor="middle" fill="#ffffff">2</text>
<text x="16" y="80" font-size="18" font-weight="600" fill="#e6e6e6" style="letter-spacing:.5px">BAW178</text>
<text x="444" y="80" font-size="12" text-anchor="end" fill="#9b9b9b">B77W · G-STBH</text>
<text x="16" y="104" font-size="16" font-weight="700" fill="#e6e6e6">LHR</text>
<text x="444" y="104" font-size="16" font-weight="700" text-anchor="end" fill="#e6e6e6">JFK</text>
<text x="16" y="119" font-size="11" fill="#9b9b9b">London Heathrow</text>
<text x="444" y="119" font-size="11" text-anchor="end" fill="#9b9b9b">New York JFK</text>
<line x1="16" y1="138" x2="444" y2="138" stroke="#3a3a3a" stroke-width="3" stroke-linecap="round"/>
<line x1="16" y1="138" x2="178.6" y2="138" stroke="#3bb6ef" stroke-width="3" stroke-linecap="round"/>
<circle cx="16" cy="138" r="5.5" fill="#e6e6e6" stroke="#1c1c1c" stroke-width="2"/>
<circle cx="444" cy="138" r="5.5" fill="#e6e6e6" stroke="#1c1c1c" stroke-width="2"/>
<g transform="translate(168.6,128.0) rotate(45,10.0,10.0) scale(0.833)"><path d="M21 16v-2l-8-5V3.5A1.5 1.5 0 0 0 11.5 2 1.5 1.5 0 0 0 10 3.5V9l-8 5v2l8-2.5V19l-2 1.5V22l3.5-1 3.5 1v-1.5L13 19v-5.5z" fill="#3bb6ef"/></g>
<text x="16" y="160" font-size="12" fill="#9b9b9b">2.5h flown</text>
<text x="230.0" y="160" font-size="12" font-weight="600" text-anchor="middle" fill="#3bb6ef">38%</text>
<text x="444" y="160" font-size="12" text-anchor="end" fill="#9b9b9b">4.1h left</text>
<text x="230.0" y="175" font-size="11" text-anchor="middle" fill="#9b9b9b">6.6h total flight time</text>
<rect x="45.0" y="187" width="90" height="21" rx="10.5" fill="#2b2b2b"/>
<text x="90.0" y="201.5" font-size="11.5" text-anchor="middle" fill="#a7adb3">7.2 km away</text>
<rect x="142.0" y="187" width="78" height="21" rx="10.5" fill="#2b2b2b"/>
<text x="181.0" y="201.5" font-size="11.5" text-anchor="middle" fill="#a7adb3">38,000 ft</text>
<rect x="227.0" y="187" width="72" height="21" rx="10.5" fill="#2b2b2b"/>
<text x="263.0" y="201.5" font-size="11.5" text-anchor="middle" fill="#a7adb3">912 km/h</text>
<rect x="306.0" y="187" width="109" height="21" rx="10.5" fill="#2b2b2b"/>
<text x="360.5" y="201.5" font-size="11.5" text-anchor="middle" fill="#a7adb3">≈ 299 on board</text>
<rect x="133.0" y="215" width="109" height="21" rx="10.5" fill="#2b2b2b"/>
<text x="187.5" y="229.5" font-size="11.5" text-anchor="middle" fill="#a7adb3">132,418 kg CO₂</text>
<rect x="249.0" y="215" width="78" height="21" rx="10.5" fill="#2b2b2b"/>
<text x="288.0" y="229.5" font-size="11.5" text-anchor="middle" fill="#a7adb3">ETA 18:42</text>
<line x1="16" y1="249" x2="444" y2="249" stroke="#333333" stroke-width="1"/>
<text x="16" y="279" font-size="18" font-weight="600" fill="#e6e6e6" style="letter-spacing:.5px">KLM605</text>
<text x="444" y="279" font-size="12" text-anchor="end" fill="#9b9b9b">A339 · PH-BHA</text>
<text x="16" y="303" font-size="16" font-weight="700" fill="#e6e6e6">AMS</text>
<text x="444" y="303" font-size="16" font-weight="700" text-anchor="end" fill="#e6e6e6">LAX</text>
<text x="16" y="318" font-size="11" fill="#9b9b9b">Amsterdam</text>
<text x="444" y="318" font-size="11" text-anchor="end" fill="#9b9b9b">Los Angeles</text>
<line x1="16" y1="337" x2="444" y2="337" stroke="#3a3a3a" stroke-width="3" stroke-linecap="round"/>
<line x1="16" y1="337" x2="289.9" y2="337" stroke="#3bb6ef" stroke-width="3" stroke-linecap="round"/>
<circle cx="16" cy="337" r="5.5" fill="#e6e6e6" stroke="#1c1c1c" stroke-width="2"/>
<circle cx="444" cy="337" r="5.5" fill="#e6e6e6" stroke="#1c1c1c" stroke-width="2"/>
<g transform="translate(279.9,327.0) rotate(45,10.0,10.0) scale(0.833)"><path d="M21 16v-2l-8-5V3.5A1.5 1.5 0 0 0 11.5 2 1.5 1.5 0 0 0 10 3.5V9l-8 5v2l8-2.5V19l-2 1.5V22l3.5-1 3.5 1v-1.5L13 19v-5.5z" fill="#3bb6ef"/></g>
<text x="16" y="359" font-size="12" fill="#9b9b9b">6.9h flown</text>
<text x="230.0" y="359" font-size="12" font-weight="600" text-anchor="middle" fill="#3bb6ef">64%</text>
<text x="444" y="359" font-size="12" text-anchor="end" fill="#9b9b9b">3.9h left</text>
<text x="230.0" y="374" font-size="11" text-anchor="middle" fill="#9b9b9b">10.8h total flight time</text>
<rect x="41.5" y="386" width="97" height="21" rx="10.5" fill="#2b2b2b"/>
<text x="90.0" y="400.5" font-size="11.5" text-anchor="middle" fill="#a7adb3">11.4 km away</text>
<rect x="145.5" y="386" width="78" height="21" rx="10.5" fill="#2b2b2b"/>
<text x="184.5" y="400.5" font-size="11.5" text-anchor="middle" fill="#a7adb3">36,000 ft</text>
<rect x="230.5" y="386" width="72" height="21" rx="10.5" fill="#2b2b2b"/>
<text x="266.5" y="400.5" font-size="11.5" text-anchor="middle" fill="#a7adb3">889 km/h</text>
<rect x="309.5" y="386" width="109" height="21" rx="10.5" fill="#2b2b2b"/>
<text x="364.0" y="400.5" font-size="11.5" text-anchor="middle" fill="#a7adb3">≈ 238 on board</text>
<rect x="133.0" y="414" width="109" height="21" rx="10.5" fill="#2b2b2b"/>
<text x="187.5" y="428.5" font-size="11.5" text-anchor="middle" fill="#a7adb3">211,222 kg CO₂</text>
<rect x="249.0" y="414" width="78" height="21" rx="10.5" fill="#2b2b2b"/>
<text x="288.0" y="428.5" font-size="11.5" text-anchor="middle" fill="#a7adb3">ETA 22:07</text>
</svg>